# Blender v2.93.1 OBJ File: ''
# www.blender.org
mtllib dode.mtl
o Icosphere
v -0.390657 -0.631110 0.283830
v -0.390657 -0.631110 -0.283830
v 0.149221 -0.631108 0.459246
v 0.240719 -0.148778 0.742549
v -0.631210 -0.148778 0.459240
v -0.631822 -0.148778 -0.458398
v 0.780598 -0.148778 0.000524
v 0.482160 -0.631660 0.000527
v 0.148497 -0.631661 -0.458720
v -0.240719 0.148778 0.742549
v -0.240719 0.148778 -0.742549
v -0.780598 0.148778 0.000524
v -0.482160 0.631660 0.000527
v 0.241163 -0.149667 -0.742226
v -0.149497 0.631661 -0.458395
v 0.390382 0.631660 -0.282984
v 0.631210 0.148778 0.459240
v 0.631210 0.148778 -0.459240
v -0.149221 0.631108 0.459246
v 0.390657 0.631110 0.283830
vt 0.914885 0.010035
vt 0.909091 0.105078
vt 0.903298 0.010034
vt 0.261142 0.157461
vt 0.181728 0.157461
vt 0.227228 0.078652
vt 0.994207 0.147428
vt 0.988413 0.157461
vt 0.909001 0.157461
vt 0.863682 0.078652
vt 0.829769 0.157461
vt 0.823975 0.147427
vt 0.681864 0.078652
vt 0.647951 0.157461
vt 0.642157 0.147428
vt 0.500046 0.078652
vt 0.545546 0.157461
vt 0.466132 0.157461
vt 0.170233 0.314921
vt 0.090820 0.262383
vt 0.176025 0.304886
vt 0.863591 0.236112
vt 0.903298 0.304887
vt 0.897505 0.314921
vt 0.772772 0.236114
vt 0.818273 0.314921
vt 0.738859 0.314921
vt 0.636454 0.314921
vt 0.636455 0.314921
vt 0.557041 0.314921
vt 0.318136 0.236111
vt 0.352049 0.314921
vt 0.272637 0.314921
vt 0.812389 0.462348
vt 0.772682 0.393573
vt 0.772681 0.393572
vt 0.954591 0.078809
vt 0.863592 0.078808
vt 0.261142 0.059072
vt 0.266936 0.147428
vt 0.909001 0.104922
vt 0.954500 0.078652
vt 0.829769 0.059071
vt 0.909181 0.157461
vt 0.647951 0.059072
vt 0.727363 0.157461
vt 0.417052 0.122436
vt 0.500046 0.078652
vt 0.090819 0.314921
vt 0.136319 0.236111
vt 0.818091 0.314921
vt 0.818091 0.262383
vt 0.689778 0.279896
vt 0.772773 0.236112
vt 0.507961 0.279895
vt 0.590955 0.236111
vt 0.272638 0.262383
vt 0.357843 0.304885
vt 0.897596 0.413153
vt 0.823975 0.462348
vn -0.0005 -1.0000 0.0004
vn 0.7229 -0.4467 0.5271
vn -0.2764 -0.4472 0.8507
vn -0.8944 -0.4472 0.0000
vn -0.2764 -0.4472 -0.8507
vn 0.7236 -0.4477 -0.5253
vn 0.2764 0.4472 0.8507
vn -0.7229 0.4467 0.5271
vn -0.7241 0.4475 -0.5249
vn 0.2762 0.4481 -0.8502
vn 0.8944 0.4472 0.0000
vn 0.0000 1.0000 0.0000
vn -0.0003 -1.0000 0.0010
vn -0.0010 -1.0000 0.0000
vn 0.7236 -0.4472 0.5257
vn -0.8947 -0.4468 0.0016
vn -0.2779 -0.4467 -0.8504
vn 0.7241 -0.4475 -0.5249
vn 0.7232 -0.4481 -0.5255
vn -0.7236 0.4472 0.5257
vn -0.7229 0.4468 -0.5271
vn 0.2763 0.4481 -0.8502
vn 0.2766 0.4457 -0.8514
vn 0.8947 0.4468 0.0016
vn 0.8947 0.4468 -0.0016
vn 0.0003 1.0000 0.0010
usemtl None
s off
f 8/1/1 1/2/1 9/3/1
f 17/4/2 4/5/2 3/6/2
f 4/7/3 10/8/3 5/9/3
f 1/10/4 12/11/4 6/12/4
f 2/13/5 11/14/5 14/15/5
f 8/16/6 14/17/6 18/18/6
f 20/19/7 10/20/7 17/21/7
f 5/22/8 10/23/8 19/24/8
f 12/25/9 13/26/9 15/27/9
f 11/28/10 15/29/10 16/30/10
f 7/31/11 16/32/11 20/33/11
f 16/34/12 15/35/12 13/36/12
f 3/37/13 1/2/13 8/1/13
f 1/2/14 2/38/14 9/3/14
f 3/6/15 8/39/15 7/40/15
f 7/40/15 17/4/15 3/6/15
f 5/9/3 1/41/3 3/42/3
f 3/42/3 4/7/3 5/9/3
f 6/12/4 2/43/4 1/10/4
f 1/10/16 5/44/16 12/11/16
f 14/15/5 9/45/5 2/13/5
f 2/13/17 6/46/17 11/14/17
f 18/18/18 7/47/18 8/16/18
f 8/16/19 9/48/19 14/17/19
f 19/49/7 10/20/7 20/19/7
f 10/20/7 4/50/7 17/21/7
f 13/51/20 12/52/20 19/24/20
f 12/52/20 5/22/20 19/24/20
f 15/27/21 11/53/21 6/54/21
f 6/54/9 12/25/9 15/27/9
f 16/30/22 18/55/22 11/28/22
f 18/55/23 14/56/23 11/28/23
f 20/33/24 17/57/24 7/31/24
f 7/31/25 18/58/25 16/32/25
f 13/36/26 19/59/26 20/60/26
f 20/60/26 16/34/26 13/36/26
